# Blender 3.2.1
# www.blender.org
mtllib DBShotgunModel.mtl
o Cube
v 0.188528 0.243950 0.174128
v 0.188528 0.075416 0.174128
v 0.188528 0.243950 3.644127
v 0.188528 0.075416 3.644127
v -0.188528 0.243950 0.174128
v -0.188528 0.075416 0.174128
v -0.188528 0.243950 3.644127
v -0.188528 0.075416 3.644127
v -0.122354 -0.427550 -0.283231
v -0.122354 0.166198 0.307503
v -0.122354 -0.342728 -0.623505
v -0.122354 0.281731 0.118720
v 0.122354 -0.427550 -0.283231
v 0.122354 0.166198 0.307503
v 0.122354 -0.342728 -0.623505
v 0.122354 0.281731 0.118720
v 0.038129 0.311777 3.505027
v 0.038129 0.235519 3.387578
v 0.038129 0.311777 3.581286
v 0.038129 0.235519 3.581286
v -0.038129 0.311777 3.505027
v -0.038129 0.235519 3.387578
v -0.038129 0.311777 3.581286
v -0.038129 0.235519 3.581286
vn -0.0000 1.0000 -0.0000
vn -0.0000 -0.0000 1.0000
vn -1.0000 -0.0000 -0.0000
vn -0.0000 -1.0000 -0.0000
vn 1.0000 -0.0000 -0.0000
vn -0.0000 -0.0000 -1.0000
vn -0.0000 0.7652 -0.6438
vn -0.0000 -0.7053 0.7089
vn -0.0000 -0.9703 -0.2419
vn -0.0000 0.8529 0.5220
vn -0.0000 -0.8387 0.5446
vt 0.625000 0.500000
vt 0.375000 0.500000
vt 0.625000 0.750000
vt 0.375000 0.750000
vt 0.875000 0.500000
vt 0.625000 0.250000
vt 0.125000 0.500000
vt 0.375000 0.250000
vt 0.875000 0.750000
vt 0.625000 1.000000
vt 0.625000 0.000000
vt 0.375000 1.000000
vt 0.375000 0.000000
vt 0.125000 0.750000
vt 0.375000 0.000000
vt 0.375000 1.000000
vt 0.125000 0.750000
vt 0.625000 0.000000
vt 0.625000 1.000000
vt 0.875000 0.750000
vt 0.375000 0.250000
vt 0.125000 0.500000
vt 0.625000 0.250000
vt 0.875000 0.500000
vt 0.375000 0.750000
vt 0.625000 0.750000
vt 0.375000 0.500000
vt 0.625000 0.500000
vt 0.375000 0.000000
vt 0.375000 1.000000
vt 0.125000 0.750000
vt 0.625000 0.000000
vt 0.625000 1.000000
vt 0.875000 0.750000
vt 0.375000 0.250000
vt 0.125000 0.500000
vt 0.625000 0.250000
vt 0.875000 0.500000
vt 0.375000 0.750000
vt 0.625000 0.750000
vt 0.375000 0.500000
vt 0.625000 0.500000
s 0
usemtl Material
f 1/1/1 5/5/1 7/9/1 3/3/1
f 4/4/2 3/3/2 7/10/2 8/12/2
f 8/13/3 7/11/3 5/6/3 6/8/3
f 6/7/4 2/2/4 4/4/4 8/14/4
f 2/2/5 1/1/5 3/3/5 4/4/5
f 6/8/6 5/6/6 1/1/6 2/2/6
f 9/15/3 10/18/3 12/23/3 11/21/3
f 11/21/7 12/23/7 16/28/7 15/27/7
f 15/27/5 16/28/5 14/26/5 13/25/5
f 13/25/8 14/26/8 10/19/8 9/16/8
f 11/22/9 15/27/9 13/25/9 9/17/9
f 16/28/10 12/24/10 10/20/10 14/26/10
f 17/29/3 18/32/3 20/37/3 19/35/3
f 19/35/6 20/37/6 24/42/6 23/41/6
f 23/41/5 24/42/5 22/40/5 21/39/5
f 21/39/11 22/40/11 18/33/11 17/30/11
f 19/36/4 23/41/4 21/39/4 17/31/4
f 24/42/1 20/38/1 18/34/1 22/40/1
